<svg width="92" height="34" viewBox="0 0 92 34" fill="none" xmlns="http://www.w3.org/2000/svg">
<rect width="92" height="34" rx="6" fill="white"/>
<path d="M0 6C0 2.68629 2.68629 0 6 0H28V34H6C2.68629 34 0 31.3137 0 28V6Z" fill="#159947"/>
<path d="M92 6C92 2.68629 89.3137 0 86 0H64V34H86C89.3137 34 92 31.3137 92 28V6Z" fill="#159947"/>
<path d="M10.7148 19.0312V16.1016H17.0078V19.0312H10.7148Z" fill="white"/>
<path d="M79.1328 16.2617H83.668V18.8281H79.1328V23.3398H76.5664V18.8281H72.0312V16.2617H76.5664V11.6914H79.1328V16.2617Z" fill="white"/>
<path d="M51.8438 17.4336C51.8438 18.8164 51.7344 20.0508 51.5156 21.1367C51.3047 22.2227 50.9609 23.1445 50.4844 23.9023C50.0156 24.6602 49.3984 25.2383 48.6328 25.6367C47.8672 26.0352 46.9375 26.2344 45.8438 26.2344C44.4688 26.2344 43.3398 25.8867 42.457 25.1914C41.5742 24.4883 40.9219 23.4805 40.5 22.168C40.0781 20.8477 39.8672 19.2695 39.8672 17.4336C39.8672 15.582 40.0586 14 40.4414 12.6875C40.832 11.3672 41.4648 10.3555 42.3398 9.65234C43.2148 8.94922 44.3828 8.59766 45.8438 8.59766C47.2109 8.59766 48.3359 8.94922 49.2188 9.65234C50.1094 10.3477 50.7695 11.3555 51.1992 12.6758C51.6289 13.9883 51.8438 15.5742 51.8438 17.4336ZM43.4648 17.4336C43.4648 18.7383 43.5352 19.8281 43.6758 20.7031C43.8242 21.5703 44.0703 22.2227 44.4141 22.6602C44.7578 23.0977 45.2344 23.3164 45.8438 23.3164C46.4453 23.3164 46.918 23.1016 47.2617 22.6719C47.6133 22.2344 47.8633 21.582 48.0117 20.7148C48.1602 19.8398 48.2344 18.7461 48.2344 17.4336C48.2344 16.1289 48.1602 15.0391 48.0117 14.1641C47.8633 13.2891 47.6133 12.6328 47.2617 12.1953C46.918 11.75 46.4453 11.5273 45.8438 11.5273C45.2344 11.5273 44.7578 11.75 44.4141 12.1953C44.0703 12.6328 43.8242 13.2891 43.6758 14.1641C43.5352 15.0391 43.4648 16.1289 43.4648 17.4336Z" fill="black"/>
</svg>
